<svg width="516" height="200" viewBox="0 0 516 200" fill="none" xmlns="http://www.w3.org/2000/svg">
<path d="M48.886 157.139L62.8534 171.735H45.7919L40.5763 165.88C37.9831 168.502 35.1838 170.395 32.1781 171.561C29.2314 172.726 25.9016 173.309 22.1888 173.309C19.3599 173.309 16.6195 172.93 13.9674 172.172C11.3154 171.415 8.92854 170.279 6.80691 168.764C4.74421 167.191 3.09405 165.239 1.85643 162.908C0.61881 160.577 0 157.868 0 154.78C0 152.799 0.324139 150.934 0.972416 149.186C1.67963 147.38 2.62258 145.748 3.80126 144.292C5.03888 142.835 6.4533 141.582 8.04453 140.533C9.63575 139.426 11.3743 138.552 13.2602 137.911C12.2583 136.804 11.3154 135.755 10.4314 134.765C9.60629 133.774 8.86961 132.726 8.22133 131.619C7.63199 130.511 7.16051 129.346 6.80691 128.122C6.51224 126.899 6.3649 125.53 6.3649 124.015C6.3649 121.218 6.89531 118.829 7.95613 116.848C9.07588 114.867 10.5492 113.235 12.3762 111.953C14.2032 110.672 16.2953 109.739 18.6527 109.157C21.0101 108.574 23.4264 108.283 25.9016 108.283C28.3179 108.283 30.6164 108.603 32.7969 109.244C34.9775 109.827 36.8929 110.759 38.543 112.041C40.2521 113.264 41.6076 114.838 42.6095 116.76C43.6114 118.625 44.1123 120.868 44.1123 123.49C44.1123 125.355 43.7882 127.074 43.1399 128.647C42.5505 130.22 41.7255 131.706 40.6647 133.104C39.6038 134.444 38.3662 135.668 36.9518 136.775C35.5963 137.824 34.1229 138.756 32.5317 139.572L40.5763 148.05L46.676 139.834H62.0578L48.886 157.139ZM25.7248 118.771C24.0157 118.771 22.5718 119.295 21.3931 120.344C20.2145 121.393 19.6251 122.791 19.6251 124.539C19.6251 125.297 19.8019 126.054 20.1555 126.811C20.5091 127.511 20.9217 128.21 21.3931 128.909C21.9236 129.55 22.4834 130.162 23.0728 130.745C23.721 131.327 24.3104 131.852 24.8408 132.318C25.548 131.91 26.3142 131.444 27.1392 130.919C27.9643 130.337 28.7305 129.725 29.4377 129.084C30.1449 128.385 30.7342 127.656 31.2057 126.899C31.6772 126.083 31.9129 125.238 31.9129 124.364C31.9129 122.558 31.2941 121.189 30.0565 120.256C28.8778 119.266 27.4339 118.771 25.7248 118.771ZM21.4815 145.34C20.5975 145.865 19.7135 146.418 18.8295 147.001C18.0044 147.525 17.2383 148.137 16.5311 148.836C15.8828 149.477 15.3524 150.235 14.9398 151.109C14.5273 151.983 14.321 153.003 14.321 154.168C14.321 155.333 14.5568 156.382 15.0282 157.314C15.4997 158.247 16.1185 159.033 16.8847 159.674C17.6508 160.315 18.5348 160.839 19.5367 161.247C20.5975 161.597 21.6583 161.772 22.7192 161.772C24.7819 161.772 26.5499 161.335 28.0233 160.461C29.5555 159.587 31.0584 158.509 32.5317 157.227L21.4815 145.34Z" fill="#FF5740"/>
<path d="M94.2083 129.259H107.468V136.076H107.645C109.06 133.454 110.739 131.502 112.684 130.22C114.629 128.88 117.075 128.21 120.021 128.21C120.788 128.21 121.554 128.239 122.32 128.297C123.086 128.356 123.793 128.472 124.442 128.647V140.621C123.499 140.329 122.556 140.126 121.613 140.009C120.729 139.834 119.786 139.747 118.784 139.747C116.25 139.747 114.246 140.096 112.773 140.796C111.299 141.495 110.15 142.485 109.325 143.767C108.559 144.991 108.058 146.477 107.822 148.225C107.586 149.973 107.468 151.895 107.468 153.993V171.735H94.2083V129.259Z" fill="#FF5740"/>
<path d="M157.17 166.404H156.993C155.52 168.676 153.546 170.308 151.07 171.298C148.654 172.289 146.09 172.784 143.379 172.784C141.376 172.784 139.431 172.493 137.545 171.91C135.718 171.386 134.097 170.57 132.683 169.463C131.269 168.356 130.149 166.987 129.324 165.355C128.499 163.724 128.086 161.83 128.086 159.674C128.086 157.227 128.528 155.158 129.412 153.469C130.355 151.779 131.593 150.381 133.125 149.273C134.716 148.166 136.514 147.321 138.517 146.739C140.521 146.098 142.584 145.632 144.706 145.34C146.886 145.049 149.037 144.874 151.159 144.816C153.339 144.758 155.343 144.729 157.17 144.729C157.17 142.398 156.316 140.563 154.606 139.222C152.956 137.824 150.982 137.125 148.684 137.125C146.503 137.125 144.499 137.591 142.672 138.523C140.904 139.397 139.313 140.621 137.899 142.194L130.826 135.027C133.302 132.755 136.19 131.065 139.49 129.958C142.79 128.793 146.208 128.21 149.744 128.21C153.634 128.21 156.817 128.705 159.292 129.696C161.826 130.628 163.83 132.026 165.303 133.891C166.835 135.755 167.896 138.057 168.486 140.796C169.075 143.476 169.37 146.593 169.37 150.147V171.735H157.17V166.404ZM153.899 153.119C152.897 153.119 151.63 153.177 150.098 153.294C148.625 153.352 147.181 153.585 145.766 153.993C144.411 154.401 143.232 155.013 142.23 155.828C141.287 156.644 140.816 157.78 140.816 159.237C140.816 160.81 141.494 161.976 142.849 162.733C144.205 163.491 145.619 163.869 147.092 163.869C148.389 163.869 149.627 163.695 150.805 163.345C152.043 162.995 153.133 162.5 154.076 161.859C155.019 161.218 155.756 160.402 156.286 159.412C156.875 158.421 157.17 157.256 157.17 155.916V153.119H153.899Z" fill="#FF5740"/>
<path d="M177.689 129.259H190.419V135.027H190.596C191.008 134.211 191.597 133.396 192.364 132.58C193.13 131.764 194.043 131.036 195.104 130.395C196.165 129.754 197.373 129.23 198.728 128.822C200.084 128.414 201.557 128.21 203.149 128.21C206.508 128.21 209.219 128.734 211.281 129.783C213.344 130.774 214.935 132.172 216.055 133.978C217.234 135.785 218.029 137.911 218.442 140.359C218.854 142.806 219.061 145.457 219.061 148.312V171.735H205.801V150.934C205.801 149.71 205.742 148.458 205.624 147.176C205.565 145.836 205.3 144.612 204.828 143.505C204.416 142.398 203.738 141.495 202.795 140.796C201.911 140.096 200.614 139.747 198.905 139.747C197.196 139.747 195.811 140.067 194.75 140.708C193.69 141.291 192.864 142.107 192.275 143.155C191.745 144.146 191.391 145.282 191.214 146.564C191.038 147.846 190.949 149.186 190.949 150.584V171.735H177.689V129.259Z" fill="#FF5740"/>
<path d="M228.451 105.661H241.711V146.04L256.386 129.259H272.651L255.59 148.399L273.093 171.735H256.386L241.888 150.235H241.711V171.735H228.451V105.661Z" fill="#FF5740"/>
<path d="M89.2011 50.5982H102.461V57.4154H102.638C104.053 54.7934 105.732 52.8414 107.677 51.5596C109.622 50.2194 112.068 49.5494 115.014 49.5494C115.78 49.5494 116.547 49.5785 117.313 49.6368C118.079 49.695 118.786 49.8116 119.434 49.9864V61.9602C118.491 61.6689 117.548 61.465 116.606 61.3484C115.722 61.1736 114.779 61.0862 113.777 61.0862C111.243 61.0862 109.239 61.4358 107.765 62.135C106.292 62.8342 105.143 63.8248 104.318 65.1067C103.552 66.3303 103.051 67.8161 102.815 69.5641C102.579 71.3121 102.461 73.2349 102.461 75.3325V93.0749H89.2011V50.5982Z" fill="#59B0C4"/>
<path d="M164.311 85.7332C162.19 88.4135 159.508 90.482 156.267 91.9386C153.025 93.3953 149.666 94.1237 146.189 94.1237C142.889 94.1237 139.765 93.5993 136.818 92.5505C133.931 91.5016 131.396 90.0158 129.216 88.093C127.094 86.1119 125.415 83.7521 124.177 81.0136C122.939 78.275 122.321 75.216 122.321 71.8365C122.321 68.457 122.939 65.398 124.177 62.6594C125.415 59.9209 127.094 57.5902 129.216 55.6674C131.396 53.6863 133.931 52.1714 136.818 51.1226C139.765 50.0738 142.889 49.5494 146.189 49.5494C149.254 49.5494 152.023 50.0738 154.499 51.1226C157.033 52.1714 159.154 53.6863 160.864 55.6674C162.632 57.5902 163.987 59.9209 164.93 62.6594C165.873 65.398 166.344 68.457 166.344 71.8365V75.9443H135.581C136.111 78.4498 137.26 80.46 139.028 81.975C140.796 83.4317 142.977 84.16 145.57 84.16C147.751 84.16 149.578 83.6939 151.051 82.7616C152.583 81.771 153.909 80.5183 155.029 79.0034L164.311 85.7332ZM153.084 67.0295C153.143 64.8153 152.407 62.9216 150.874 61.3484C149.342 59.7752 147.368 58.9886 144.951 58.9886C143.478 58.9886 142.181 59.2217 141.062 59.6878C139.942 60.154 138.969 60.7658 138.144 61.5232C137.378 62.2224 136.759 63.0673 136.288 64.0579C135.875 64.9901 135.64 65.9807 135.581 67.0295H153.084Z" fill="#59B0C4"/>
<path d="M201.371 87.7434H201.194C199.721 90.0158 197.746 91.6473 195.271 92.6379C192.855 93.6284 190.291 94.1237 187.58 94.1237C185.576 94.1237 183.632 93.8323 181.746 93.2497C179.919 92.7253 178.298 91.9095 176.884 90.8024C175.469 89.6954 174.349 88.3261 173.524 86.6946C172.699 85.0631 172.287 83.1695 172.287 81.0136C172.287 78.5664 172.729 76.4979 173.613 74.8081C174.556 73.1184 175.793 71.72 177.326 70.6129C178.917 69.5058 180.714 68.661 182.718 68.0783C184.722 67.4373 186.785 66.9712 188.906 66.6799C191.087 66.3885 193.238 66.2137 195.359 66.1555C197.54 66.0972 199.544 66.0681 201.371 66.0681C201.371 63.7374 200.516 61.902 198.807 60.5618C197.157 59.1634 195.183 58.4642 192.884 58.4642C190.704 58.4642 188.7 58.9304 186.873 59.8626C185.105 60.7366 183.514 61.9602 182.099 63.5335L175.027 56.3666C177.502 54.0942 180.39 52.4044 183.69 51.2974C186.991 50.132 190.409 49.5494 193.945 49.5494C197.835 49.5494 201.017 50.0446 203.492 51.0352C206.027 51.9674 208.03 53.3658 209.504 55.2304C211.036 57.0949 212.097 59.3965 212.686 62.135C213.275 64.8153 213.57 67.9326 213.57 71.4869V93.0749H201.371V87.7434ZM198.1 74.4585C197.098 74.4585 195.831 74.5168 194.299 74.6333C192.825 74.6916 191.381 74.9247 189.967 75.3325C188.611 75.7404 187.433 76.3522 186.431 77.1679C185.488 77.9837 185.016 79.1199 185.016 80.5766C185.016 82.1498 185.694 83.3151 187.05 84.0726C188.405 84.8301 189.82 85.2088 191.293 85.2088C192.59 85.2088 193.827 85.034 195.006 84.6844C196.243 84.3348 197.334 83.8395 198.277 83.1986C199.22 82.5576 199.956 81.7419 200.487 80.7514C201.076 79.7608 201.371 78.5955 201.371 77.2553V74.4585H198.1Z" fill="#59B0C4"/>
<path d="M266.974 93.0749H254.775V87.4812H254.598C254.068 88.2387 253.36 89.0253 252.476 89.841C251.651 90.5985 250.649 91.2977 249.471 91.9386C248.351 92.5796 247.084 93.104 245.67 93.5119C244.314 93.9197 242.9 94.1237 241.426 94.1237C238.244 94.1237 235.356 93.5993 232.763 92.5505C230.17 91.4434 227.93 89.9284 226.044 88.0056C224.217 86.0245 222.803 83.6939 221.801 81.0136C220.799 78.3333 220.298 75.3908 220.298 72.1861C220.298 69.2145 220.74 66.3885 221.624 63.7083C222.567 60.9697 223.864 58.5516 225.514 56.454C227.223 54.3564 229.286 52.6958 231.702 51.4722C234.118 50.1903 236.859 49.5494 239.923 49.5494C242.693 49.5494 245.257 49.9864 247.614 50.8604C250.031 51.6761 252.005 53.1036 253.537 55.143H253.714V27H266.974V93.0749ZM254.775 71.8365C254.775 68.6318 253.832 66.0389 251.946 64.0579C250.119 62.0768 247.526 61.0862 244.167 61.0862C240.807 61.0862 238.185 62.0768 236.299 64.0579C234.472 66.0389 233.559 68.6318 233.559 71.8365C233.559 75.0412 234.472 77.6341 236.299 79.6152C238.185 81.5962 240.807 82.5868 244.167 82.5868C247.526 82.5868 250.119 81.5962 251.946 79.6152C253.832 77.6341 254.775 75.0412 254.775 71.8365Z" fill="#59B0C4"/>
<g clip-path="url(#clip0_4023_34)">
<path opacity="0.2" d="M383.275 52.7734H433.275C440.53 52.7736 446.411 58.6553 446.411 65.9102V143.183C446.411 150.437 440.53 156.319 433.275 156.319H383.275C376.02 156.319 370.139 150.438 370.139 143.183V65.9102C370.139 58.6551 376.02 52.7734 383.275 52.7734Z" fill="#59B0C4" stroke="#59B0C4"/>
<path opacity="0.5" d="M394.639 45.9551H444.639C451.894 45.9553 457.775 51.8369 457.775 59.0918V136.364C457.775 143.619 451.894 149.501 444.639 149.501H394.639C387.384 149.501 381.502 143.619 381.502 136.364V59.0918C381.502 51.8368 387.384 45.9551 394.639 45.9551Z" fill="#59B0C4" stroke="#59B0C4"/>
<path d="M415.359 38.6495L464.599 47.3319C471.744 48.5918 476.514 55.4053 475.254 62.55L461.836 138.649C460.576 145.793 453.763 150.564 446.619 149.305L397.378 140.622C390.234 139.362 385.463 132.549 386.722 125.404L400.141 49.3054C401.4 42.1606 408.214 37.3896 415.359 38.6495Z" fill="#59B0C4" stroke="#59B0C4"/>
<path d="M458.168 63.4278L457.758 65.7513C454.259 66.3729 451.348 67.8153 449.025 70.0787C446.709 72.3104 445.305 74.8172 444.815 77.5991C444.709 78.1998 444.726 78.6591 444.865 78.977C444.958 79.189 445.084 79.3089 445.242 79.3368C445.4 79.3646 445.656 79.2958 446.012 79.1303C447.151 78.5815 448.496 78.4438 450.045 78.7169C451.847 79.0346 453.312 80.059 454.441 81.79C455.576 83.4895 455.965 85.3508 455.608 87.374C455.234 89.492 454.099 91.215 452.203 92.5429C450.338 93.8765 448.267 94.3426 445.991 93.9412C443.336 93.473 441.236 91.9783 439.693 89.457C438.149 86.9357 437.7 83.8415 438.347 80.1745C439.099 75.9068 441.086 72.3131 444.306 69.3932C447.526 66.4733 452.147 64.4849 458.168 63.4278ZM435.359 59.4061L434.95 61.7296C431.45 62.3512 428.539 63.7936 426.217 66.057C423.901 68.2887 422.497 70.7955 422.006 73.5774C421.9 74.178 421.917 74.6373 422.057 74.9553C422.15 75.1673 422.275 75.2872 422.433 75.315C422.591 75.3429 422.848 75.2741 423.203 75.1085C424.343 74.5598 425.687 74.422 427.236 74.6952C429.038 75.0129 430.504 76.0373 431.633 77.7683C432.767 79.4677 433.156 81.3291 432.799 83.3522C432.426 85.4703 431.291 87.1933 429.394 88.5212C427.53 89.8547 425.459 90.3208 423.183 89.9195C420.528 89.4513 418.428 87.9565 416.884 85.4353C415.34 82.914 414.892 79.8198 415.538 76.1528C416.291 71.8851 418.277 68.2913 421.498 65.3715C424.718 62.4516 429.338 60.4631 435.359 59.4061Z" fill="#FFD426"/>
<path opacity="0.65" d="M409.738 99.9682L448.908 106.875C451.417 107.317 453.092 109.71 452.65 112.219C452.207 114.728 449.814 116.404 447.305 115.962L408.136 109.056C405.627 108.613 403.952 106.22 404.394 103.71C404.837 101.201 407.229 99.526 409.738 99.9682Z" fill="white" stroke="#59B0C4"/>
<path opacity="0.4" d="M406.581 117.874L432.321 122.413C434.83 122.855 436.505 125.248 436.063 127.757C435.621 130.267 433.228 131.943 430.719 131.5L404.979 126.962C402.47 126.519 400.794 124.126 401.237 121.617C401.68 119.108 404.072 117.432 406.581 117.874Z" fill="white" stroke="#59B0C4"/>
</g>
<defs>
<clipPath id="clip0_4023_34">
<rect width="200" height="200" fill="white" transform="translate(315.093)"/>
</clipPath>
</defs>
</svg>
