<svg width="142" height="167" viewBox="0 0 142 167" fill="none" xmlns="http://www.w3.org/2000/svg">
<g clip-path="url(#clip0_3912_122)">
<path d="M57.549 64.545C64.546 64.545 70.2181 58.3931 70.2181 50.8045C70.2181 43.2158 64.546 37.064 57.549 37.064C50.5521 37.064 44.8799 43.2158 44.8799 50.8045C44.8799 58.3931 50.5521 64.545 57.549 64.545Z" fill="#FF5740"/>
<path d="M27.9879 92.0258C27.9879 80.7515 37.4897 66.6587 56.4933 66.6587C75.4969 66.6587 84.9987 80.7515 84.9987 92.0258H27.9879Z" fill="#FF5740"/>
<path d="M139.529 138.975C142.201 141.583 142.234 145.863 139.604 148.532C136.974 151.201 132.676 151.252 130.004 148.643L91.5279 111.073L101.051 101.405L139.529 138.975Z" fill="#FFD426" stroke="#00657C" stroke-width="0.1" stroke-linecap="round"/>
<path d="M97.9059 68.4888C97.9059 46.2377 79.7947 28.2615 57.5317 28.2612C35.2684 28.2612 17.1574 46.2376 17.1574 68.4888C17.1576 90.7399 35.2685 108.716 57.5317 108.716C79.7946 108.716 97.9057 90.7398 97.9059 68.4888ZM109.404 68.4888C109.404 96.9525 86.2143 120.09 57.5317 120.09C28.8488 120.09 5.65901 96.9527 5.65884 68.4888C5.65884 40.0248 28.8487 16.8877 57.5317 16.8877C86.2144 16.8879 109.404 40.0249 109.404 68.4888Z" fill="#FFD426" stroke="#00657C" stroke-width="0.1"/>
</g>
<defs>
<clipPath id="clip0_3912_122">
<rect width="141.471" height="167" fill="white"/>
</clipPath>
</defs>
</svg>
