<svg width="142" height="167" viewBox="0 0 142 167" fill="none" xmlns="http://www.w3.org/2000/svg">
<g clip-path="url(#clip0_3912_130)">
<path d="M57.5492 64.545C64.5461 64.545 70.2183 58.3931 70.2183 50.8045C70.2183 43.2158 64.5461 37.064 57.5492 37.064C50.5523 37.064 44.8801 43.2158 44.8801 50.8045C44.8801 58.3931 50.5523 64.545 57.5492 64.545Z" fill="#FF5740"/>
<path d="M27.9878 92.0258C27.9878 80.7515 37.4896 66.6587 56.4932 66.6587C75.4968 66.6587 84.9986 80.7515 84.9986 92.0258H27.9878Z" fill="#FF5740"/>
<path d="M139.529 138.975C142.201 141.583 142.234 145.863 139.604 148.532C136.974 151.201 132.676 151.252 130.004 148.643L91.528 111.073L101.051 101.405L139.529 138.975Z" fill="#FFD426" stroke="#FFD426" stroke-width="0.1" stroke-linecap="round"/>
<path d="M97.906 68.4888C97.906 46.2377 79.7948 28.2615 57.5318 28.2612C35.2685 28.2612 17.1575 46.2376 17.1575 68.4888C17.1577 90.7399 35.2686 108.716 57.5318 108.716C79.7947 108.716 97.9058 90.7398 97.906 68.4888ZM109.405 68.4888C109.404 96.9525 86.2144 120.09 57.5318 120.09C28.8489 120.09 5.6591 96.9527 5.65894 68.4888C5.65894 40.0248 28.8488 16.8877 57.5318 16.8877C86.2145 16.8879 109.405 40.0249 109.405 68.4888Z" fill="#FFD426" stroke="#FFD426" stroke-width="0.1"/>
</g>
<defs>
<clipPath id="clip0_3912_130">
<rect width="141.471" height="167" fill="white"/>
</clipPath>
</defs>
</svg>
